<mxfile host="app.diagrams.net" modified="2021-11-17T12:45:12.140Z" agent="5.0 (Windows NT 6.1; Win64; x64) AppleWebKit/537.36 (KHTML, like Gecko) Chrome/95.0.4638.69 Safari/537.36" etag="9Z-bS58f3jK1thojhEGZ" version="15.7.4" type="github">
  <diagram id="C5RBs43oDa-KdzZeNtuy" name="Page-1">
    <mxGraphModel dx="846" dy="979" grid="1" gridSize="20" guides="1" tooltips="1" connect="1" arrows="1" fold="1" page="1" pageScale="1" pageWidth="827" pageHeight="1169" math="0" shadow="0">
      <root>
        <mxCell id="WIyWlLk6GJQsqaUBKTNV-0" />
        <mxCell id="WIyWlLk6GJQsqaUBKTNV-1" parent="WIyWlLk6GJQsqaUBKTNV-0" />
        <mxCell id="6rxGdcta7ztDB5Gd1GuF-130" value="" style="edgeStyle=orthogonalEdgeStyle;rounded=0;orthogonalLoop=1;jettySize=auto;html=1;" parent="WIyWlLk6GJQsqaUBKTNV-1" source="6rxGdcta7ztDB5Gd1GuF-131" target="6rxGdcta7ztDB5Gd1GuF-134" edge="1">
          <mxGeometry relative="1" as="geometry" />
        </mxCell>
        <mxCell id="6rxGdcta7ztDB5Gd1GuF-131" value="i=0" style="whiteSpace=wrap;html=1;rounded=0;" parent="WIyWlLk6GJQsqaUBKTNV-1" vertex="1">
          <mxGeometry x="1131" y="290" width="80" height="20" as="geometry" />
        </mxCell>
        <mxCell id="Hcy6HVX9xFuKbH1JVQTh-3" value="" style="edgeStyle=orthogonalEdgeStyle;rounded=0;orthogonalLoop=1;jettySize=auto;html=1;" parent="WIyWlLk6GJQsqaUBKTNV-1" source="6rxGdcta7ztDB5Gd1GuF-134" edge="1">
          <mxGeometry relative="1" as="geometry">
            <mxPoint x="1171" y="395" as="targetPoint" />
          </mxGeometry>
        </mxCell>
        <mxCell id="41D5uZGfCWX0jDAvpGkn-3" value="" style="edgeStyle=orthogonalEdgeStyle;rounded=0;orthogonalLoop=1;jettySize=auto;html=1;entryX=0.5;entryY=0;entryDx=0;entryDy=0;" parent="WIyWlLk6GJQsqaUBKTNV-1" source="6rxGdcta7ztDB5Gd1GuF-134" target="41D5uZGfCWX0jDAvpGkn-41" edge="1">
          <mxGeometry relative="1" as="geometry">
            <mxPoint x="1166.0285714285715" y="480.0095238095238" as="targetPoint" />
            <Array as="points">
              <mxPoint x="1251" y="360" />
              <mxPoint x="1251" y="500" />
              <mxPoint x="1171" y="500" />
            </Array>
          </mxGeometry>
        </mxCell>
        <mxCell id="6rxGdcta7ztDB5Gd1GuF-134" value="i&amp;lt;n" style="rhombus;whiteSpace=wrap;html=1;rounded=0;" parent="WIyWlLk6GJQsqaUBKTNV-1" vertex="1">
          <mxGeometry x="1111" y="340" width="120" height="40" as="geometry" />
        </mxCell>
        <mxCell id="6rxGdcta7ztDB5Gd1GuF-138" value="да" style="text;html=1;strokeColor=none;fillColor=none;align=center;verticalAlign=middle;whiteSpace=wrap;rounded=0;" parent="WIyWlLk6GJQsqaUBKTNV-1" vertex="1">
          <mxGeometry x="1118.5" y="380" width="60" height="15" as="geometry" />
        </mxCell>
        <mxCell id="6rxGdcta7ztDB5Gd1GuF-165" value="" style="edgeStyle=orthogonalEdgeStyle;rounded=0;orthogonalLoop=1;jettySize=auto;html=1;fontSize=14;" parent="WIyWlLk6GJQsqaUBKTNV-1" source="6rxGdcta7ztDB5Gd1GuF-166" target="6rxGdcta7ztDB5Gd1GuF-171" edge="1">
          <mxGeometry relative="1" as="geometry" />
        </mxCell>
        <mxCell id="6rxGdcta7ztDB5Gd1GuF-166" value="&lt;font style=&quot;font-size: 20px&quot;&gt;Начало&lt;/font&gt;" style="rounded=1;whiteSpace=wrap;html=1;fontSize=12;glass=0;strokeWidth=1;shadow=0;" parent="WIyWlLk6GJQsqaUBKTNV-1" vertex="1">
          <mxGeometry x="1108.5" width="120" height="40" as="geometry" />
        </mxCell>
        <mxCell id="crskzABntKfRAhv5GPo1-17" value="" style="edgeStyle=orthogonalEdgeStyle;rounded=0;orthogonalLoop=1;jettySize=auto;html=1;entryX=0.411;entryY=0;entryDx=0;entryDy=0;entryPerimeter=0;exitX=0.49;exitY=0.839;exitDx=0;exitDy=0;exitPerimeter=0;" parent="WIyWlLk6GJQsqaUBKTNV-1" source="6rxGdcta7ztDB5Gd1GuF-171" target="crskzABntKfRAhv5GPo1-11" edge="1">
          <mxGeometry relative="1" as="geometry">
            <Array as="points">
              <mxPoint x="1165" y="110" />
              <mxPoint x="1165" y="129" />
            </Array>
          </mxGeometry>
        </mxCell>
        <mxCell id="6rxGdcta7ztDB5Gd1GuF-171" value="&lt;font style=&quot;font-size: 20px&quot;&gt;&quot;enter amount of numbers&quot;&lt;/font&gt;" style="shape=document;whiteSpace=wrap;html=1;boundedLbl=1;" parent="WIyWlLk6GJQsqaUBKTNV-1" vertex="1">
          <mxGeometry x="1093.5" y="60" width="150" height="60" as="geometry" />
        </mxCell>
        <mxCell id="crskzABntKfRAhv5GPo1-8" value="" style="edgeStyle=orthogonalEdgeStyle;rounded=0;orthogonalLoop=1;jettySize=auto;html=1;exitX=0.502;exitY=0.84;exitDx=0;exitDy=0;exitPerimeter=0;entryX=0.5;entryY=0;entryDx=0;entryDy=0;" parent="WIyWlLk6GJQsqaUBKTNV-1" source="6rxGdcta7ztDB5Gd1GuF-172" target="6rxGdcta7ztDB5Gd1GuF-131" edge="1">
          <mxGeometry relative="1" as="geometry">
            <mxPoint x="1171" y="287" as="targetPoint" />
          </mxGeometry>
        </mxCell>
        <mxCell id="6rxGdcta7ztDB5Gd1GuF-172" value="&lt;font style=&quot;font-size: 20px&quot;&gt;&quot;enter elements of array &quot;&lt;/font&gt;" style="shape=document;whiteSpace=wrap;html=1;boundedLbl=1;" parent="WIyWlLk6GJQsqaUBKTNV-1" vertex="1">
          <mxGeometry x="1096" y="220" width="150" height="60" as="geometry" />
        </mxCell>
        <mxCell id="41D5uZGfCWX0jDAvpGkn-2" value="" style="edgeStyle=orthogonalEdgeStyle;rounded=0;orthogonalLoop=1;jettySize=auto;html=1;entryX=0.5;entryY=0;entryDx=0;entryDy=0;startArrow=none;" parent="WIyWlLk6GJQsqaUBKTNV-1" source="m-rDZ4n_DD1ah6JTsrVf-0" target="6rxGdcta7ztDB5Gd1GuF-134" edge="1">
          <mxGeometry relative="1" as="geometry">
            <mxPoint x="1191" y="320" as="targetPoint" />
            <Array as="points">
              <mxPoint x="1166" y="500" />
              <mxPoint x="1091" y="500" />
              <mxPoint x="1091" y="320" />
              <mxPoint x="1171" y="320" />
            </Array>
          </mxGeometry>
        </mxCell>
        <mxCell id="m-rDZ4n_DD1ah6JTsrVf-2" value="" style="edgeStyle=orthogonalEdgeStyle;rounded=0;orthogonalLoop=1;jettySize=auto;html=1;" parent="WIyWlLk6GJQsqaUBKTNV-1" source="hYBSaN4shtBYQzPBx2wr-6" target="m-rDZ4n_DD1ah6JTsrVf-0" edge="1">
          <mxGeometry relative="1" as="geometry" />
        </mxCell>
        <mxCell id="hYBSaN4shtBYQzPBx2wr-6" value="&lt;span style=&quot;font-size: 18px&quot;&gt;m[i]&lt;/span&gt;" style="shape=parallelogram;perimeter=parallelogramPerimeter;whiteSpace=wrap;html=1;fixedSize=1;" parent="WIyWlLk6GJQsqaUBKTNV-1" vertex="1">
          <mxGeometry x="1118.5" y="395" width="100" height="25" as="geometry" />
        </mxCell>
        <mxCell id="41D5uZGfCWX0jDAvpGkn-4" value="нет" style="text;html=1;align=center;verticalAlign=middle;resizable=0;points=[];autosize=1;strokeColor=none;fillColor=none;" parent="WIyWlLk6GJQsqaUBKTNV-1" vertex="1">
          <mxGeometry x="1221" y="340" width="40" height="20" as="geometry" />
        </mxCell>
        <mxCell id="41D5uZGfCWX0jDAvpGkn-21" value="" style="edgeStyle=orthogonalEdgeStyle;rounded=0;orthogonalLoop=1;jettySize=auto;html=1;fontSize=14;exitX=0.505;exitY=0.823;exitDx=0;exitDy=0;exitPerimeter=0;startArrow=none;entryX=0.593;entryY=0.014;entryDx=0;entryDy=0;entryPerimeter=0;" parent="WIyWlLk6GJQsqaUBKTNV-1" source="41D5uZGfCWX0jDAvpGkn-26" target="41D5uZGfCWX0jDAvpGkn-26" edge="1">
          <mxGeometry relative="1" as="geometry">
            <mxPoint x="1535" y="1123" as="targetPoint" />
          </mxGeometry>
        </mxCell>
        <mxCell id="41D5uZGfCWX0jDAvpGkn-22" value="" style="edgeStyle=orthogonalEdgeStyle;rounded=0;orthogonalLoop=1;jettySize=auto;html=1;exitX=0.504;exitY=0.833;exitDx=0;exitDy=0;exitPerimeter=0;entryX=0.5;entryY=0;entryDx=0;entryDy=0;" parent="WIyWlLk6GJQsqaUBKTNV-1" source="41D5uZGfCWX0jDAvpGkn-23" target="41D5uZGfCWX0jDAvpGkn-26" edge="1">
          <mxGeometry relative="1" as="geometry">
            <mxPoint x="1535" y="1136" as="targetPoint" />
          </mxGeometry>
        </mxCell>
        <mxCell id="41D5uZGfCWX0jDAvpGkn-23" value="&quot;difference of even numbers is&amp;nbsp;&quot; , k" style="shape=document;whiteSpace=wrap;html=1;boundedLbl=1;" parent="WIyWlLk6GJQsqaUBKTNV-1" vertex="1">
          <mxGeometry x="1455" y="1036" width="120" height="60" as="geometry" />
        </mxCell>
        <mxCell id="41D5uZGfCWX0jDAvpGkn-24" value="" style="edgeStyle=orthogonalEdgeStyle;rounded=0;orthogonalLoop=1;jettySize=auto;html=1;fontSize=14;entryX=0.5;entryY=0;entryDx=0;entryDy=0;exitX=0.5;exitY=1;exitDx=0;exitDy=0;" parent="WIyWlLk6GJQsqaUBKTNV-1" source="41D5uZGfCWX0jDAvpGkn-25" target="41D5uZGfCWX0jDAvpGkn-23" edge="1">
          <mxGeometry relative="1" as="geometry">
            <mxPoint x="1535" y="996" as="sourcePoint" />
          </mxGeometry>
        </mxCell>
        <mxCell id="41D5uZGfCWX0jDAvpGkn-25" value="k = sum1 - sum2" style="rounded=0;whiteSpace=wrap;html=1;fontSize=14;" parent="WIyWlLk6GJQsqaUBKTNV-1" vertex="1">
          <mxGeometry x="1460" y="976" width="110" height="25" as="geometry" />
        </mxCell>
        <mxCell id="41D5uZGfCWX0jDAvpGkn-26" value="конец" style="rounded=1;whiteSpace=wrap;html=1;" parent="WIyWlLk6GJQsqaUBKTNV-1" vertex="1">
          <mxGeometry x="1485" y="1116" width="60" height="20" as="geometry" />
        </mxCell>
        <mxCell id="41D5uZGfCWX0jDAvpGkn-51" value="" style="edgeStyle=orthogonalEdgeStyle;rounded=0;orthogonalLoop=1;jettySize=auto;html=1;" parent="WIyWlLk6GJQsqaUBKTNV-1" source="41D5uZGfCWX0jDAvpGkn-27" target="41D5uZGfCWX0jDAvpGkn-42" edge="1">
          <mxGeometry relative="1" as="geometry">
            <mxPoint x="1515" y="595" as="targetPoint" />
            <Array as="points">
              <mxPoint x="1515" y="936" />
              <mxPoint x="1375" y="936" />
              <mxPoint x="1375" y="575" />
              <mxPoint x="1515" y="575" />
            </Array>
          </mxGeometry>
        </mxCell>
        <mxCell id="41D5uZGfCWX0jDAvpGkn-27" value="i=i+1" style="rounded=0;whiteSpace=wrap;html=1;" parent="WIyWlLk6GJQsqaUBKTNV-1" vertex="1">
          <mxGeometry x="1480" y="875" width="70" height="20" as="geometry" />
        </mxCell>
        <mxCell id="41D5uZGfCWX0jDAvpGkn-48" value="" style="edgeStyle=orthogonalEdgeStyle;rounded=0;orthogonalLoop=1;jettySize=auto;html=1;" parent="WIyWlLk6GJQsqaUBKTNV-1" source="41D5uZGfCWX0jDAvpGkn-30" target="41D5uZGfCWX0jDAvpGkn-27" edge="1">
          <mxGeometry relative="1" as="geometry" />
        </mxCell>
        <mxCell id="41D5uZGfCWX0jDAvpGkn-30" value="&lt;font style=&quot;font-size: 14px&quot;&gt;sum2 = sum2 + m[i]&lt;/font&gt;" style="whiteSpace=wrap;html=1;fontSize=18;" parent="WIyWlLk6GJQsqaUBKTNV-1" vertex="1">
          <mxGeometry x="1416" y="735" width="80" height="60" as="geometry" />
        </mxCell>
        <mxCell id="41D5uZGfCWX0jDAvpGkn-47" value="" style="edgeStyle=orthogonalEdgeStyle;rounded=0;orthogonalLoop=1;jettySize=auto;html=1;" parent="WIyWlLk6GJQsqaUBKTNV-1" source="41D5uZGfCWX0jDAvpGkn-32" target="41D5uZGfCWX0jDAvpGkn-27" edge="1">
          <mxGeometry relative="1" as="geometry">
            <Array as="points">
              <mxPoint x="1588" y="835" />
              <mxPoint x="1515" y="835" />
            </Array>
          </mxGeometry>
        </mxCell>
        <mxCell id="41D5uZGfCWX0jDAvpGkn-32" value="&lt;font style=&quot;font-size: 14px&quot;&gt;sum1 = sum1 + m[i]&lt;/font&gt;" style="whiteSpace=wrap;html=1;fontSize=18;" parent="WIyWlLk6GJQsqaUBKTNV-1" vertex="1">
          <mxGeometry x="1550" y="735" width="80" height="60" as="geometry" />
        </mxCell>
        <mxCell id="41D5uZGfCWX0jDAvpGkn-33" value="да" style="text;html=1;strokeColor=none;fillColor=none;align=center;verticalAlign=middle;whiteSpace=wrap;rounded=0;" parent="WIyWlLk6GJQsqaUBKTNV-1" vertex="1">
          <mxGeometry x="1415" y="666" width="60" height="30" as="geometry" />
        </mxCell>
        <mxCell id="41D5uZGfCWX0jDAvpGkn-34" value="нет" style="text;html=1;strokeColor=none;fillColor=none;align=center;verticalAlign=middle;whiteSpace=wrap;rounded=0;" parent="WIyWlLk6GJQsqaUBKTNV-1" vertex="1">
          <mxGeometry x="1562.5" y="666" width="60" height="30" as="geometry" />
        </mxCell>
        <mxCell id="41D5uZGfCWX0jDAvpGkn-53" value="" style="edgeStyle=orthogonalEdgeStyle;rounded=0;orthogonalLoop=1;jettySize=auto;html=1;" parent="WIyWlLk6GJQsqaUBKTNV-1" source="41D5uZGfCWX0jDAvpGkn-35" edge="1">
          <mxGeometry relative="1" as="geometry">
            <mxPoint x="1435" y="735" as="targetPoint" />
            <Array as="points">
              <mxPoint x="1435" y="688" />
              <mxPoint x="1435" y="735" />
            </Array>
          </mxGeometry>
        </mxCell>
        <mxCell id="41D5uZGfCWX0jDAvpGkn-54" value="" style="edgeStyle=orthogonalEdgeStyle;rounded=0;orthogonalLoop=1;jettySize=auto;html=1;" parent="WIyWlLk6GJQsqaUBKTNV-1" source="41D5uZGfCWX0jDAvpGkn-35" edge="1">
          <mxGeometry relative="1" as="geometry">
            <mxPoint x="1615" y="735" as="targetPoint" />
            <Array as="points">
              <mxPoint x="1615" y="688" />
              <mxPoint x="1615" y="735" />
            </Array>
          </mxGeometry>
        </mxCell>
        <mxCell id="41D5uZGfCWX0jDAvpGkn-35" value="&lt;font style=&quot;font-size: 14px&quot;&gt;i % 2 != 0&lt;/font&gt;" style="rhombus;whiteSpace=wrap;html=1;fontSize=18;" parent="WIyWlLk6GJQsqaUBKTNV-1" vertex="1">
          <mxGeometry x="1456" y="668" width="120" height="40" as="geometry" />
        </mxCell>
        <mxCell id="iT1FbO_TKxMqbt4qC4rC-1" value="" style="edgeStyle=orthogonalEdgeStyle;rounded=0;orthogonalLoop=1;jettySize=auto;html=1;" parent="WIyWlLk6GJQsqaUBKTNV-1" source="41D5uZGfCWX0jDAvpGkn-41" target="iT1FbO_TKxMqbt4qC4rC-0" edge="1">
          <mxGeometry relative="1" as="geometry" />
        </mxCell>
        <mxCell id="41D5uZGfCWX0jDAvpGkn-41" value="i=0" style="whiteSpace=wrap;html=1;rounded=0;" parent="WIyWlLk6GJQsqaUBKTNV-1" vertex="1">
          <mxGeometry x="1131" y="536" width="80" height="20" as="geometry" />
        </mxCell>
        <mxCell id="41D5uZGfCWX0jDAvpGkn-45" value="" style="edgeStyle=orthogonalEdgeStyle;rounded=0;orthogonalLoop=1;jettySize=auto;html=1;" parent="WIyWlLk6GJQsqaUBKTNV-1" source="41D5uZGfCWX0jDAvpGkn-42" target="41D5uZGfCWX0jDAvpGkn-35" edge="1">
          <mxGeometry relative="1" as="geometry">
            <Array as="points">
              <mxPoint x="1516" y="658" />
              <mxPoint x="1516" y="658" />
            </Array>
          </mxGeometry>
        </mxCell>
        <mxCell id="41D5uZGfCWX0jDAvpGkn-57" value="" style="edgeStyle=orthogonalEdgeStyle;rounded=0;orthogonalLoop=1;jettySize=auto;html=1;" parent="WIyWlLk6GJQsqaUBKTNV-1" source="41D5uZGfCWX0jDAvpGkn-42" edge="1">
          <mxGeometry relative="1" as="geometry">
            <mxPoint x="1515" y="975" as="targetPoint" />
            <Array as="points">
              <mxPoint x="1655" y="618" />
              <mxPoint x="1655" y="955" />
              <mxPoint x="1515" y="955" />
            </Array>
          </mxGeometry>
        </mxCell>
        <mxCell id="41D5uZGfCWX0jDAvpGkn-42" value="i&amp;lt;n" style="rhombus;whiteSpace=wrap;html=1;rounded=0;" parent="WIyWlLk6GJQsqaUBKTNV-1" vertex="1">
          <mxGeometry x="1455" y="598" width="120" height="40" as="geometry" />
        </mxCell>
        <mxCell id="41D5uZGfCWX0jDAvpGkn-55" value="да" style="text;html=1;strokeColor=none;fillColor=none;align=center;verticalAlign=middle;whiteSpace=wrap;rounded=0;" parent="WIyWlLk6GJQsqaUBKTNV-1" vertex="1">
          <mxGeometry x="1465" y="625" width="60" height="30" as="geometry" />
        </mxCell>
        <mxCell id="41D5uZGfCWX0jDAvpGkn-56" value="нет" style="text;html=1;align=center;verticalAlign=middle;resizable=0;points=[];autosize=1;strokeColor=none;fillColor=none;" parent="WIyWlLk6GJQsqaUBKTNV-1" vertex="1">
          <mxGeometry x="1575" y="578" width="40" height="20" as="geometry" />
        </mxCell>
        <mxCell id="crskzABntKfRAhv5GPo1-5" value="" style="edgeStyle=orthogonalEdgeStyle;rounded=0;orthogonalLoop=1;jettySize=auto;html=1;" parent="WIyWlLk6GJQsqaUBKTNV-1" source="crskzABntKfRAhv5GPo1-2" target="6rxGdcta7ztDB5Gd1GuF-172" edge="1">
          <mxGeometry relative="1" as="geometry" />
        </mxCell>
        <mxCell id="crskzABntKfRAhv5GPo1-2" value="sum1 = 0&lt;br&gt;sum2 = 0" style="rounded=0;whiteSpace=wrap;html=1;" parent="WIyWlLk6GJQsqaUBKTNV-1" vertex="1">
          <mxGeometry x="1131" y="168" width="80" height="34" as="geometry" />
        </mxCell>
        <mxCell id="crskzABntKfRAhv5GPo1-11" value="n" style="shape=parallelogram;perimeter=parallelogramPerimeter;whiteSpace=wrap;html=1;fixedSize=1;" parent="WIyWlLk6GJQsqaUBKTNV-1" vertex="1">
          <mxGeometry x="1137" y="129" width="69" height="20" as="geometry" />
        </mxCell>
        <mxCell id="crskzABntKfRAhv5GPo1-15" value="" style="edgeStyle=orthogonalEdgeStyle;rounded=0;orthogonalLoop=1;jettySize=auto;html=1;startArrow=none;exitX=0.459;exitY=0.95;exitDx=0;exitDy=0;exitPerimeter=0;entryX=0.475;entryY=0.02;entryDx=0;entryDy=0;entryPerimeter=0;" parent="WIyWlLk6GJQsqaUBKTNV-1" source="crskzABntKfRAhv5GPo1-11" target="crskzABntKfRAhv5GPo1-2" edge="1">
          <mxGeometry relative="1" as="geometry">
            <mxPoint x="1191.5" y="160" as="sourcePoint" />
            <mxPoint x="1169" y="150" as="targetPoint" />
            <Array as="points">
              <mxPoint x="1169" y="150" />
            </Array>
          </mxGeometry>
        </mxCell>
        <mxCell id="m-rDZ4n_DD1ah6JTsrVf-0" value="i=i+1" style="rounded=0;whiteSpace=wrap;html=1;" parent="WIyWlLk6GJQsqaUBKTNV-1" vertex="1">
          <mxGeometry x="1133.5" y="460" width="70" height="20" as="geometry" />
        </mxCell>
        <mxCell id="iT1FbO_TKxMqbt4qC4rC-0" value="1" style="ellipse;whiteSpace=wrap;html=1;rounded=0;" parent="WIyWlLk6GJQsqaUBKTNV-1" vertex="1">
          <mxGeometry x="1148.25" y="585" width="46.5" height="35" as="geometry" />
        </mxCell>
        <mxCell id="iT1FbO_TKxMqbt4qC4rC-3" value="" style="edgeStyle=orthogonalEdgeStyle;rounded=0;orthogonalLoop=1;jettySize=auto;html=1;entryX=0.5;entryY=0;entryDx=0;entryDy=0;" parent="WIyWlLk6GJQsqaUBKTNV-1" source="iT1FbO_TKxMqbt4qC4rC-2" target="41D5uZGfCWX0jDAvpGkn-42" edge="1">
          <mxGeometry relative="1" as="geometry" />
        </mxCell>
        <mxCell id="iT1FbO_TKxMqbt4qC4rC-2" value="1" style="ellipse;whiteSpace=wrap;html=1;rounded=0;" parent="WIyWlLk6GJQsqaUBKTNV-1" vertex="1">
          <mxGeometry x="1491.75" y="501" width="46.5" height="35" as="geometry" />
        </mxCell>
        <mxCell id="599UEO_GXs5RGiWeaeHM-0" value="1" style="text;html=1;strokeColor=none;fillColor=none;align=center;verticalAlign=middle;whiteSpace=wrap;rounded=0;" vertex="1" parent="WIyWlLk6GJQsqaUBKTNV-1">
          <mxGeometry x="1246" width="60" height="30" as="geometry" />
        </mxCell>
        <mxCell id="599UEO_GXs5RGiWeaeHM-1" value="2" style="text;html=1;align=center;verticalAlign=middle;resizable=0;points=[];autosize=1;strokeColor=none;fillColor=none;" vertex="1" parent="WIyWlLk6GJQsqaUBKTNV-1">
          <mxGeometry x="1256" y="80" width="40" height="20" as="geometry" />
        </mxCell>
        <mxCell id="599UEO_GXs5RGiWeaeHM-2" value="3" style="text;html=1;align=center;verticalAlign=middle;resizable=0;points=[];autosize=1;strokeColor=none;fillColor=none;" vertex="1" parent="WIyWlLk6GJQsqaUBKTNV-1">
          <mxGeometry x="1256" y="129" width="40" height="20" as="geometry" />
        </mxCell>
        <mxCell id="599UEO_GXs5RGiWeaeHM-3" value="4" style="text;html=1;align=center;verticalAlign=middle;resizable=0;points=[];autosize=1;strokeColor=none;fillColor=none;" vertex="1" parent="WIyWlLk6GJQsqaUBKTNV-1">
          <mxGeometry x="1256" y="175" width="40" height="20" as="geometry" />
        </mxCell>
        <mxCell id="599UEO_GXs5RGiWeaeHM-4" value="5" style="text;html=1;align=center;verticalAlign=middle;resizable=0;points=[];autosize=1;strokeColor=none;fillColor=none;" vertex="1" parent="WIyWlLk6GJQsqaUBKTNV-1">
          <mxGeometry x="1256" y="240" width="40" height="20" as="geometry" />
        </mxCell>
        <mxCell id="599UEO_GXs5RGiWeaeHM-5" value="6" style="text;html=1;align=center;verticalAlign=middle;resizable=0;points=[];autosize=1;strokeColor=none;fillColor=none;" vertex="1" parent="WIyWlLk6GJQsqaUBKTNV-1">
          <mxGeometry x="1256" y="290" width="40" height="20" as="geometry" />
        </mxCell>
        <mxCell id="599UEO_GXs5RGiWeaeHM-6" value="7" style="text;html=1;align=center;verticalAlign=middle;resizable=0;points=[];autosize=1;strokeColor=none;fillColor=none;" vertex="1" parent="WIyWlLk6GJQsqaUBKTNV-1">
          <mxGeometry x="1256" y="320" width="40" height="20" as="geometry" />
        </mxCell>
        <mxCell id="599UEO_GXs5RGiWeaeHM-7" value="7.1" style="text;html=1;align=center;verticalAlign=middle;resizable=0;points=[];autosize=1;strokeColor=none;fillColor=none;" vertex="1" parent="WIyWlLk6GJQsqaUBKTNV-1">
          <mxGeometry x="1256" y="350" width="40" height="20" as="geometry" />
        </mxCell>
        <mxCell id="599UEO_GXs5RGiWeaeHM-8" value="7.2" style="text;html=1;align=center;verticalAlign=middle;resizable=0;points=[];autosize=1;strokeColor=none;fillColor=none;" vertex="1" parent="WIyWlLk6GJQsqaUBKTNV-1">
          <mxGeometry x="1256" y="395" width="40" height="20" as="geometry" />
        </mxCell>
        <mxCell id="599UEO_GXs5RGiWeaeHM-9" value="7.3" style="text;html=1;align=center;verticalAlign=middle;resizable=0;points=[];autosize=1;strokeColor=none;fillColor=none;" vertex="1" parent="WIyWlLk6GJQsqaUBKTNV-1">
          <mxGeometry x="1256" y="460" width="40" height="20" as="geometry" />
        </mxCell>
        <mxCell id="599UEO_GXs5RGiWeaeHM-10" value="8" style="text;html=1;align=center;verticalAlign=middle;resizable=0;points=[];autosize=1;strokeColor=none;fillColor=none;" vertex="1" parent="WIyWlLk6GJQsqaUBKTNV-1">
          <mxGeometry x="1256" y="536" width="40" height="20" as="geometry" />
        </mxCell>
        <mxCell id="599UEO_GXs5RGiWeaeHM-11" value="9" style="text;html=1;align=center;verticalAlign=middle;resizable=0;points=[];autosize=1;strokeColor=none;fillColor=none;" vertex="1" parent="WIyWlLk6GJQsqaUBKTNV-1">
          <mxGeometry x="1654" y="558" width="40" height="20" as="geometry" />
        </mxCell>
        <mxCell id="599UEO_GXs5RGiWeaeHM-12" value="9.1" style="text;html=1;align=center;verticalAlign=middle;resizable=0;points=[];autosize=1;strokeColor=none;fillColor=none;" vertex="1" parent="WIyWlLk6GJQsqaUBKTNV-1">
          <mxGeometry x="1654" y="608" width="40" height="20" as="geometry" />
        </mxCell>
        <mxCell id="599UEO_GXs5RGiWeaeHM-13" value="9.2" style="text;html=1;align=center;verticalAlign=middle;resizable=0;points=[];autosize=1;strokeColor=none;fillColor=none;" vertex="1" parent="WIyWlLk6GJQsqaUBKTNV-1">
          <mxGeometry x="1654" y="678" width="40" height="20" as="geometry" />
        </mxCell>
        <mxCell id="599UEO_GXs5RGiWeaeHM-14" value="9.2.1" style="text;html=1;align=center;verticalAlign=middle;resizable=0;points=[];autosize=1;strokeColor=none;fillColor=none;" vertex="1" parent="WIyWlLk6GJQsqaUBKTNV-1">
          <mxGeometry x="1650" y="740" width="60" height="20" as="geometry" />
        </mxCell>
        <mxCell id="599UEO_GXs5RGiWeaeHM-15" value="9.3" style="text;html=1;align=center;verticalAlign=middle;resizable=0;points=[];autosize=1;strokeColor=none;fillColor=none;" vertex="1" parent="WIyWlLk6GJQsqaUBKTNV-1">
          <mxGeometry x="1660" y="875" width="40" height="20" as="geometry" />
        </mxCell>
        <mxCell id="599UEO_GXs5RGiWeaeHM-16" value="10" style="text;html=1;align=center;verticalAlign=middle;resizable=0;points=[];autosize=1;strokeColor=none;fillColor=none;" vertex="1" parent="WIyWlLk6GJQsqaUBKTNV-1">
          <mxGeometry x="1660" y="976" width="40" height="20" as="geometry" />
        </mxCell>
        <mxCell id="599UEO_GXs5RGiWeaeHM-17" value="11" style="text;html=1;align=center;verticalAlign=middle;resizable=0;points=[];autosize=1;strokeColor=none;fillColor=none;" vertex="1" parent="WIyWlLk6GJQsqaUBKTNV-1">
          <mxGeometry x="1660" y="1036" width="40" height="20" as="geometry" />
        </mxCell>
      </root>
    </mxGraphModel>
  </diagram>
</mxfile>
